<svg width="20" height="20" viewBox="0 0 20 20" fill="none" xmlns="http://www.w3.org/2000/svg">
<path fill-rule="evenodd" clip-rule="evenodd" d="M15.0014 9.48109C14.3875 11.2952 12.8116 12.6667 10.8798 12.9904V17.0159H13.9585V18.3335H6.48164V17.0159H9.56035V13.0452C7.43023 12.8697 5.65879 11.4311 4.99895 9.48109H4.65366C3.2342 9.48109 2.0835 8.33202 2.0835 6.91458C2.0835 5.49713 3.2342 4.34807 4.65366 4.34807H4.72238V2.0835H15.2779V4.34807H15.3467C16.7661 4.34807 17.9168 5.49713 17.9168 6.91458C17.9168 8.33202 16.7661 9.48109 15.3467 9.48109H15.0014ZM13.9585 3.40106H6.04183V7.79296C6.04183 9.97597 7.81404 11.7457 10.0002 11.7457C12.1863 11.7457 13.9585 9.97597 13.9585 7.79296V3.40106ZM15.2779 5.66563V8.16352H15.3467C16.0374 8.16352 16.5974 7.60435 16.5974 6.91458C16.5974 6.2248 16.0374 5.66563 15.3467 5.66563H15.2779ZM4.65366 5.66563H4.72238V8.16352H4.65366C3.96291 8.16352 3.40294 7.60435 3.40294 6.91458C3.40294 6.2248 3.96291 5.66563 4.65366 5.66563Z" fill="black"/>
</svg>
