<svg width="20" height="20" viewBox="0 0 20 20" fill="none" xmlns="http://www.w3.org/2000/svg">
<path fill-rule="evenodd" clip-rule="evenodd" d="M9.99984 5.65799L14.3417 9.99987L9.99984 14.3418L5.65795 9.99987L9.99984 5.65799ZM9.99984 7.5188L12.4809 9.99987L9.99984 12.481L7.51876 9.99987L9.99984 7.5188Z" fill="black"/>
<path fill-rule="evenodd" clip-rule="evenodd" d="M18.3332 9.99984C18.3332 14.6022 14.6022 18.3332 9.99984 18.3332C5.39746 18.3332 1.6665 14.6022 1.6665 9.99984C1.6665 5.39746 5.39746 1.6665 9.99984 1.6665C14.6022 1.6665 18.3332 5.39746 18.3332 9.99984ZM17.0174 9.99984C17.0174 13.8755 13.8755 17.0174 9.99984 17.0174C6.12415 17.0174 2.98229 13.8755 2.98229 9.99984C2.98229 6.12415 6.12415 2.98229 9.99984 2.98229C13.8755 2.98229 17.0174 6.12415 17.0174 9.99984Z" fill="black"/>
</svg>
