<svg width="28" height="29" viewBox="0 0 28 29" fill="none" xmlns="http://www.w3.org/2000/svg">
<path fill-rule="evenodd" clip-rule="evenodd" d="M13.6235 22.3909L9.5268 18.9291C6.35563 16.2494 6.1353 11.3737 9.05867 8.41033C11.7904 5.64122 16.2096 5.64122 18.9413 8.41033C21.8647 11.3736 21.6444 16.2494 18.4732 18.9291L14.3765 22.3909C14.1591 22.5746 13.8409 22.5746 13.6235 22.3909ZM15.506 23.7276C14.6364 24.4624 13.3636 24.4624 12.494 23.7276L8.39729 20.2658C4.44563 16.9266 4.17505 10.8688 7.81286 7.18132C11.2299 3.71756 16.7701 3.71756 20.1871 7.18131C23.8249 10.8688 23.5544 16.9266 19.6027 20.2658L15.506 23.7276ZM15.75 13.3335C15.75 14.3 14.9665 15.0835 14 15.0835C13.0335 15.0835 12.25 14.3 12.25 13.3335C12.25 12.367 13.0335 11.5835 14 11.5835C14.9665 11.5835 15.75 12.367 15.75 13.3335ZM17.5 13.3335C17.5 15.2665 15.933 16.8335 14 16.8335C12.067 16.8335 10.5 15.2665 10.5 13.3335C10.5 11.4005 12.067 9.8335 14 9.8335C15.933 9.8335 17.5 11.4005 17.5 13.3335Z" fill="black"/>
</svg>
