<svg width="20" height="20" viewBox="0 0 20 20" fill="none" xmlns="http://www.w3.org/2000/svg">
<path fill-rule="evenodd" clip-rule="evenodd" d="M17.9168 8.3335H17.0835V17.9168H2.91683V8.3335H2.0835L3.3335 2.0835H16.6668L17.9168 8.3335ZM3.60825 7.0835L4.35825 3.3335H6.30419L5.65201 7.0835H3.60825ZM9.37516 7.0835H6.92078L7.57295 3.3335H9.37516V7.0835ZM13.0795 7.0835H10.6252V3.3335H12.4274L13.0795 7.0835ZM14.3483 7.0835L13.6961 3.3335H15.6421L16.3921 7.0835H14.3483ZM8.75016 16.6668H11.2502V13.7502C11.2502 13.0598 10.6905 12.5002 10.0002 12.5002C9.30981 12.5002 8.75016 13.0598 8.75016 13.7502V16.6668ZM12.5002 16.6668H15.8335V8.3335H4.16683V16.6668H7.50016V13.7502C7.50016 12.3695 8.61945 11.2502 10.0002 11.2502C11.3809 11.2502 12.5002 12.3695 12.5002 13.7502V16.6668Z" fill="black"/>
</svg>
